<svg xmlns="http://www.w3.org/2000/svg" width="20.216" height="19.62" viewBox="0 0 20.216 19.62"><defs><style>.a{fill:#fff;}</style></defs><path class="a" d="M6.762,16.173c0,.081-.094.146-.212.146-.134.012-.228-.053-.228-.146s.094-.146.212-.146S6.762,16.08,6.762,16.173ZM5.494,15.99c-.029.081.053.174.175.2a.192.192,0,0,0,.253-.081c.024-.081-.053-.174-.175-.211A.21.21,0,0,0,5.494,15.99Zm1.8-.069c-.118.028-.2.105-.187.2s.118.134.24.105.2-.105.187-.187S7.414,15.909,7.3,15.921ZM9.977.375A9.751,9.751,0,0,0,0,10.274a10.175,10.175,0,0,0,6.908,9.7c.522.093.705-.227.705-.491S7.6,17.848,7.6,17c0,0-2.853.609-3.452-1.209,0,0-.465-1.181-1.133-1.485,0,0-.933-.637.065-.625a2.153,2.153,0,0,1,1.573,1.047,2.16,2.16,0,0,0,2.971.848,2.251,2.251,0,0,1,.652-1.367C6,13.954,3.7,13.625,3.7,9.722a3.068,3.068,0,0,1,.962-2.39,3.817,3.817,0,0,1,.106-2.755c.852-.264,2.812,1.1,2.812,1.1a9.672,9.672,0,0,1,5.119,0s1.96-1.363,2.812-1.1a3.815,3.815,0,0,1,.106,2.755,3.147,3.147,0,0,1,1.052,2.39c0,3.915-2.4,4.227-4.679,4.483a2.393,2.393,0,0,1,.693,1.882c0,1.367-.012,3.059-.012,3.392,0,.264.187.584.705.491a10.081,10.081,0,0,0,6.839-9.7A9.972,9.972,0,0,0,9.977.375ZM3.962,14.367c-.053.041-.041.134.029.211s.159.093.212.041.041-.134-.029-.211S4.015,14.315,3.962,14.367Zm-.44-.329c-.029.053.012.118.094.158a.122.122,0,0,0,.175-.028c.029-.053-.012-.118-.094-.158C3.615,13.986,3.55,14,3.521,14.039Zm1.321,1.444c-.065.053-.041.174.053.252.094.093.212.105.265.041s.029-.174-.053-.252C5.017,15.43,4.895,15.418,4.842,15.483Zm-.465-.6c-.065.041-.065.146,0,.239s.175.134.228.093a.184.184,0,0,0,0-.252C4.549,14.875,4.443,14.834,4.377,14.887Z" transform="translate(0 -0.375)"/></svg>