<svg xmlns="http://www.w3.org/2000/svg" width="20.623" height="20.623" viewBox="0 0 20.623 20.623"><defs><style>.a{fill:#332d2d;stroke:#332d2d;stroke-width:0.5px;}</style></defs><path class="a" d="M10.436.375A10.061,10.061,0,1,0,20.5,10.436,10.073,10.073,0,0,0,10.436.375Zm6.652,4.64a8.553,8.553,0,0,1,1.941,5.353,20.083,20.083,0,0,0-5.984-.277c-.233-.57-.454-1.071-.755-1.688a11.448,11.448,0,0,0,4.8-3.389Zm-.955-.994a9.7,9.7,0,0,1-4.5,3.1A45.872,45.872,0,0,0,8.422,2.094,8.572,8.572,0,0,1,16.133,4.021ZM6.783,2.672a54.835,54.835,0,0,1,3.186,4.97A32.055,32.055,0,0,1,2.024,8.689,8.625,8.625,0,0,1,6.783,2.672Zm-4.94,7.777c0-.088,0-.175,0-.263a31.7,31.7,0,0,0,8.832-1.223c.246.481.481.97.7,1.458A13.311,13.311,0,0,0,4.052,16.2,8.559,8.559,0,0,1,1.842,10.449Zm3.319,6.78a12.087,12.087,0,0,1,6.8-5.386,35.723,35.723,0,0,1,1.833,6.517A8.576,8.576,0,0,1,5.161,17.229Zm10.077.344a37.092,37.092,0,0,0-1.67-6.127,12.614,12.614,0,0,1,5.353.367A8.609,8.609,0,0,1,15.238,17.574Z" transform="translate(-0.125 -0.125)"/></svg>