<svg xmlns="http://www.w3.org/2000/svg" width="21.513" height="16.87" viewBox="0 0 21.513 16.87"><defs><style>.a{fill:#fff;}</style></defs><path class="a" d="M19.3,6.458c.014.185.014.369.014.554A12.235,12.235,0,0,1,6.771,19.124,12.785,12.785,0,0,1,0,17.213a9.444,9.444,0,0,0,1.065.053,9.033,9.033,0,0,0,5.474-1.819,4.4,4.4,0,0,1-4.123-2.952,5.754,5.754,0,0,0,.833.066,4.821,4.821,0,0,0,1.16-.145A4.3,4.3,0,0,1,.874,8.238V8.185a4.561,4.561,0,0,0,1.993.54A4.218,4.218,0,0,1,.9,5.18a4.115,4.115,0,0,1,.6-2.148,12.686,12.686,0,0,0,9.091,4.455,4.647,4.647,0,0,1-.109-.975,4.333,4.333,0,0,1,4.409-4.257A4.473,4.473,0,0,1,18.114,3.6a8.872,8.872,0,0,0,2.8-1.028,4.276,4.276,0,0,1-1.938,2.346,9.089,9.089,0,0,0,2.539-.659,9.307,9.307,0,0,1-2.211,2.2Z" transform="translate(0 -2.254)"/></svg>