<svg xmlns="http://www.w3.org/2000/svg" width="23.476" height="14.65" viewBox="0 0 23.476 14.65"><defs><style>.a{fill:#fff;}</style></defs><path class="a" d="M9.456,10.1a3.078,3.078,0,0,0,1.973-3c0-2.864-2.144-3.562-4.618-3.562H0V17.912H7c2.625,0,5.091-1.254,5.091-4.175A3.466,3.466,0,0,0,9.456,10.1ZM3.175,5.989H6.154c1.145,0,2.176.321,2.176,1.643,0,1.221-.8,1.712-1.936,1.712H3.175V5.989Zm3.4,9.481h-3.4V11.51h3.46c1.4,0,2.282.58,2.282,2.053,0,1.452-1.056,1.907-2.348,1.907ZM21.182,5.7H15.325V4.289h5.857V5.7Zm2.295,7.152c0-3.079-1.81-5.647-5.091-5.647a5.243,5.243,0,0,0-5.351,5.509,5.082,5.082,0,0,0,5.351,5.465,4.661,4.661,0,0,0,4.895-3.5H20.746a2.381,2.381,0,0,1-2.27,1.359,2.359,2.359,0,0,1-2.568-2.649h7.544C23.464,13.222,23.476,13.04,23.476,12.857Zm-7.565-1.266A2.241,2.241,0,0,1,18.3,9.368a2.137,2.137,0,0,1,2.291,2.223Z" transform="translate(0 -3.534)"/></svg>