<svg xmlns="http://www.w3.org/2000/svg" width="19.423" height="18.766" viewBox="0 0 19.423 18.766"><defs><style>.a{fill:#fff;stroke:#fff;stroke-width:0.5px;}</style></defs><path class="a" d="M9.416,5.921a4.739,4.739,0,0,0-4.828,4.661,4.739,4.739,0,0,0,4.828,4.661,4.739,4.739,0,0,0,4.828-4.661A4.739,4.739,0,0,0,9.416,5.921Zm0,7.692a3.092,3.092,0,0,1-3.139-3.031A3.089,3.089,0,0,1,9.416,7.552a3.089,3.089,0,0,1,3.139,3.031,3.092,3.092,0,0,1-3.139,3.031ZM15.568,5.73a1.127,1.127,0,1,1-1.126-1.087A1.1,1.1,0,0,1,15.568,5.73Zm3.2,1.1a5.279,5.279,0,0,0-1.521-3.809A5.722,5.722,0,0,0,13.3,1.556c-1.555-.085-6.215-.085-7.769,0A5.715,5.715,0,0,0,1.584,3.02,5.3,5.3,0,0,0,.063,6.83c-.088,1.5-.088,6,0,7.5a5.279,5.279,0,0,0,1.521,3.809,5.73,5.73,0,0,0,3.946,1.469c1.555.085,6.215.085,7.769,0a5.685,5.685,0,0,0,3.946-1.469,5.313,5.313,0,0,0,1.521-3.809c.088-1.5.088-6,0-7.5Zm-2.008,9.108a3.125,3.125,0,0,1-1.79,1.728c-1.24.475-4.181.365-5.551.365s-4.315.105-5.551-.365a3.125,3.125,0,0,1-1.79-1.728c-.492-1.2-.378-4.037-.378-5.359s-.109-4.167.378-5.359a3.125,3.125,0,0,1,1.79-1.728C5.1,3.02,8.046,3.13,9.416,3.13s4.315-.105,5.551.365a3.125,3.125,0,0,1,1.79,1.728c.492,1.2.378,4.037.378,5.359S17.248,14.749,16.757,15.942Z" transform="translate(0.298 -1.199)"/></svg>