<svg xmlns="http://www.w3.org/2000/svg" width="24.451" height="35.833" viewBox="0 0 24.451 35.833"><defs><style>.a{fill:#ef3340;}</style></defs><g transform="translate(0 0)"><path class="a" d="M5433.167-338.829l10.115-10.116h7.168l-17.283,17.283ZM5426-349.578l7.168-7.168,6.533,6.534h-4.084a2.536,2.536,0,0,0-2.441-1.9,2.538,2.538,0,0,0-2.461,1.874,2.536,2.536,0,0,0,1.18,2.857,2.534,2.534,0,0,0,3.065-.408,2.548,2.548,0,0,0,.662-1.164h4.079l-6.533,6.538Zm17.283-.633-10.115-10.117v-7.166l17.283,17.283Z" transform="translate(-5426 367.494)"/></g></svg>